ffmpeg started on 2017-02-07 at 10:31:40
Report written to "sessions/170207-103139/170207-103139.log"
Command line:
ffmpeg -f v4l2 -vcodec mjpeg -s 2592x1944 -i /dev/video0 -qscale:v 5 -vf "fps=1, drawtext=fontfile=/usr/share/fonts/truetype/dejavu/DejaVuSans.ttf: fontsize=30: text='170207-103139\\_%{eif\\:n+1\\:d}': x=0: y=h-(1*lh): fontcolor=white: box=1: boxcolor=0x00000999" -report "./sessions/170207-103139/170207-103139_%4d.jpg"
ffmpeg version 2.8.10-0ubuntu0.16.04.1 Copyright (c) 2000-2016 the FFmpeg developers
  built with gcc 5.4.0 (Ubuntu/Linaro 5.4.0-6ubuntu1~16.04.4) 20160609
  configuration: --prefix=/usr --extra-version=0ubuntu0.16.04.1 --build-suffix=-ffmpeg --toolchain=hardened --libdir=/usr/lib/aarch64-linux-gnu --incdir=/usr/include/aarch64-linux-gnu --cc=cc --cxx=g++ --enable-gpl --enable-shared --disable-stripping --disable-decoder=libopenjpeg --disable-decoder=libschroedinger --enable-avresample --enable-avisynth --enable-gnutls --enable-ladspa --enable-libass --enable-libbluray --enable-libbs2b --enable-libcaca --enable-libcdio --enable-libflite --enable-libfontconfig --enable-libfreetype --enable-libfribidi --enable-libgme --enable-libgsm --enable-libmodplug --enable-libmp3lame --enable-libopenjpeg --enable-libopus --enable-libpulse --enable-librtmp --enable-libschroedinger --enable-libshine --enable-libsnappy --enable-libsoxr --enable-libspeex --enable-libssh --enable-libtheora --enable-libtwolame --enable-libvorbis --enable-libvpx --enable-libwavpack --enable-libwebp --enable-libx265 --enable-libxvid --enable-libzvbi --enable-openal --enable-opengl --enable-x11grab -  WARNING: library configuration mismatch
  avutil      configuration: --prefix=/usr --extra-version=1ubuntu2 --build-suffix=-ffmpeg --toolchain=hardened --libdir=/usr/lib/aarch64-linux-gnu --incdir=/usr/include/aarch64-linux-gnu --cc=cc --cxx=g++ --enable-gpl --enable-shared --disable-stripping --disable-decoder=libopenjpeg --disable-decoder=libschroedinger --enable-avresample --enable-avisynth --enable-gnutls --enable-ladspa --enable-libass --enable-libbluray --enable-libbs2b --enable-libcaca --enable-libcdio --enable-libflite --enable-libfontconfig --enable-libfreetype --enable-libfribidi --enable-libgme --enable-libgsm --enable-libmodplug --enable-libmp3lame --enable-libopenjpeg --enable-libopus --enable-libpulse --enable-librtmp --enable-libschroedinger --enable-libshine --enable-libsnappy --enable-libsoxr --enable-libspeex --enable-libssh --enable-libtheora --enable-libtwolame --enable-libvorbis --enable-libvpx --enable-libwavpack --enable-libwebp --enable-libx265 --enable-libxvid --enable-libzvbi --enable-openal --enable-opengl --enable-x11gr  avcodec     configuration: --prefix=/usr --extra-version=1ubuntu2 --build-suffix=-ffmpeg --toolchain=hardened --libdir=/usr/lib/aarch64-linux-gnu --incdir=/usr/include/aarch64-linux-gnu --cc=cc --cxx=g++ --enable-gpl --enable-shared --disable-stripping --disable-decoder=libopenjpeg --disable-decoder=libschroedinger --enable-avresample --enable-avisynth --enable-gnutls --enable-ladspa --enable-libass --enable-libbluray --enable-libbs2b --enable-libcaca --enable-libcdio --enable-libflite --enable-libfontconfig --enable-libfreetype --enable-libfribidi --enable-libgme --enable-libgsm --enable-libmodplug --enable-libmp3lame --enable-libopenjpeg --enable-libopus --enable-libpulse --enable-librtmp --enable-libschroedinger --enable-libshine --enable-libsnappy --enable-libsoxr --enable-libspeex --enable-libssh --enable-libtheora --enable-libtwolame --enable-libvorbis --enable-libvpx --enable-libwavpack --enable-libwebp --enable-libx265 --enable-libxvid --enable-libzvbi --enable-openal --enable-opengl --enable-x11gr  avformat    configuration: --prefix=/usr --extra-version=1ubuntu2 --build-suffix=-ffmpeg --toolchain=hardened --libdir=/usr/lib/aarch64-linux-gnu --incdir=/usr/include/aarch64-linux-gnu --cc=cc --cxx=g++ --enable-gpl --enable-shared --disable-stripping --disable-decoder=libopenjpeg --disable-decoder=libschroedinger --enable-avresample --enable-avisynth --enable-gnutls --enable-ladspa --enable-libass --enable-libbluray --enable-libbs2b --enable-libcaca --enable-libcdio --enable-libflite --enable-libfontconfig --enable-libfreetype --enable-libfribidi --enable-libgme --enable-libgsm --enable-libmodplug --enable-libmp3lame --enable-libopenjpeg --enable-libopus --enable-libpulse --enable-librtmp --enable-libschroedinger --enable-libshine --enable-libsnappy --enable-libsoxr --enable-libspeex --enable-libssh --enable-libtheora --enable-libtwolame --enable-libvorbis --enable-libvpx --enable-libwavpack --enable-libwebp --enable-libx265 --enable-libxvid --enable-libzvbi --enable-openal --enable-opengl --enable-x11gr  avfilter    configuration: --prefix=/usr --extra-version=1ubuntu2 --build-suffix=-ffmpeg --toolchain=hardened --libdir=/usr/lib/aarch64-linux-gnu --incdir=/usr/include/aarch64-linux-gnu --cc=cc --cxx=g++ --enable-gpl --enable-shared --disable-stripping --disable-decoder=libopenjpeg --disable-decoder=libschroedinger --enable-avresample --enable-avisynth --enable-gnutls --enable-ladspa --enable-libass --enable-libbluray --enable-libbs2b --enable-libcaca --enable-libcdio --enable-libflite --enable-libfontconfig --enable-libfreetype --enable-libfribidi --enable-libgme --enable-libgsm --enable-libmodplug --enable-libmp3lame --enable-libopenjpeg --enable-libopus --enable-libpulse --enable-librtmp --enable-libschroedinger --enable-libshine --enable-libsnappy --enable-libsoxr --enable-libspeex --enable-libssh --enable-libtheora --enable-libtwolame --enable-libvorbis --enable-libvpx --enable-libwavpack --enable-libwebp --enable-libx265 --enable-libxvid --enable-libzvbi --enable-openal --enable-opengl --enable-x11gr  avresample  configuration: --prefix=/usr --extra-version=1ubuntu2 --build-suffix=-ffmpeg --toolchain=hardened --libdir=/usr/lib/aarch64-linux-gnu --incdir=/usr/include/aarch64-linux-gnu --cc=cc --cxx=g++ --enable-gpl --enable-shared --disable-stripping --disable-decoder=libopenjpeg --disable-decoder=libschroedinger --enable-avresample --enable-avisynth --enable-gnutls --enable-ladspa --enable-libass --enable-libbluray --enable-libbs2b --enable-libcaca --enable-libcdio --enable-libflite --enable-libfontconfig --enable-libfreetype --enable-libfribidi --enable-libgme --enable-libgsm --enable-libmodplug --enable-libmp3lame --enable-libopenjpeg --enable-libopus --enable-libpulse --enable-librtmp --enable-libschroedinger --enable-libshine --enable-libsnappy --enable-libsoxr --enable-libspeex --enable-libssh --enable-libtheora --enable-libtwolame --enable-libvorbis --enable-libvpx --enable-libwavpack --enable-libwebp --enable-libx265 --enable-libxvid --enable-libzvbi --enable-openal --enable-opengl --enable-x11gr  swscale     configuration: --prefix=/usr --extra-version=1ubuntu2 --build-suffix=-ffmpeg --toolchain=hardened --libdir=/usr/lib/aarch64-linux-gnu --incdir=/usr/include/aarch64-linux-gnu --cc=cc --cxx=g++ --enable-gpl --enable-shared --disable-stripping --disable-decoder=libopenjpeg --disable-decoder=libschroedinger --enable-avresample --enable-avisynth --enable-gnutls --enable-ladspa --enable-libass --enable-libbluray --enable-libbs2b --enable-libcaca --enable-libcdio --enable-libflite --enable-libfontconfig --enable-libfreetype --enable-libfribidi --enable-libgme --enable-libgsm --enable-libmodplug --enable-libmp3lame --enable-libopenjpeg --enable-libopus --enable-libpulse --enable-librtmp --enable-libschroedinger --enable-libshine --enable-libsnappy --enable-libsoxr --enable-libspeex --enable-libssh --enable-libtheora --enable-libtwolame --enable-libvorbis --enable-libvpx --enable-libwavpack --enable-libwebp --enable-libx265 --enable-libxvid --enable-libzvbi --enable-openal --enable-opengl --enable-x11gr  swresample  configuration: --prefix=/usr --extra-version=1ubuntu2 --build-suffix=-ffmpeg --toolchain=hardened --libdir=/usr/lib/aarch64-linux-gnu --incdir=/usr/include/aarch64-linux-gnu --cc=cc --cxx=g++ --enable-gpl --enable-shared --disable-stripping --disable-decoder=libopenjpeg --disable-decoder=libschroedinger --enable-avresample --enable-avisynth --enable-gnutls --enable-ladspa --enable-libass --enable-libbluray --enable-libbs2b --enable-libcaca --enable-libcdio --enable-libflite --enable-libfontconfig --enable-libfreetype --enable-libfribidi --enable-libgme --enable-libgsm --enable-libmodplug --enable-libmp3lame --enable-libopenjpeg --enable-libopus --enable-libpulse --enable-librtmp --enable-libschroedinger --enable-libshine --enable-libsnappy --enable-libsoxr --enable-libspeex --enable-libssh --enable-libtheora --enable-libtwolame --enable-libvorbis --enable-libvpx --enable-libwavpack --enable-libwebp --enable-libx265 --enable-libxvid --enable-libzvbi --enable-openal --enable-opengl --enable-x11gr  postproc    configuration: --prefix=/usr --extra-version=1ubuntu2 --build-suffix=-ffmpeg --toolchain=hardened --libdir=/usr/lib/aarch64-linux-gnu --incdir=/usr/include/aarch64-linux-gnu --cc=cc --cxx=g++ --enable-gpl --enable-shared --disable-stripping --disable-decoder=libopenjpeg --disable-decoder=libschroedinger --enable-avresample --enable-avisynth --enable-gnutls --enable-ladspa --enable-libass --enable-libbluray --enable-libbs2b --enable-libcaca --enable-libcdio --enable-libflite --enable-libfontconfig --enable-libfreetype --enable-libfribidi --enable-libgme --enable-libgsm --enable-libmodplug --enable-libmp3lame --enable-libopenjpeg --enable-libopus --enable-libpulse --enable-librtmp --enable-libschroedinger --enable-libshine --enable-libsnappy --enable-libsoxr --enable-libspeex --enable-libssh --enable-libtheora --enable-libtwolame --enable-libvorbis --enable-libvpx --enable-libwavpack --enable-libwebp --enable-libx265 --enable-libxvid --enable-libzvbi --enable-openal --enable-opengl --enable-x11gr  libavutil      54. 31.100 / 54. 31.100
  libavcodec     56. 60.100 / 56. 60.100
  libavformat    56. 40.101 / 56. 40.101
  libavdevice    56.  4.100 / 56.  4.100
  libavfilter     5. 40.101 /  5. 40.101
  libavresample   2.  1.  0 /  2.  1.  0
  libswscale      3.  1.101 /  3.  1.101
  libswresample   1.  2.101 /  1.  2.101
  libpostproc    53.  3.100 / 53.  3.100
[mjpeg @ 0x47f270] ignoring invalid SAR: 0/0
[mjpeg @ 0x47f270] Changeing bps to 8
Input #0, video4linux2,v4l2, from '/dev/video0':
  Duration: N/A, start: 2608.830036, bitrate: N/A
    Stream #0:0: Video: mjpeg, yuvj422p(pc, bt470bg/unknown/unknown), 2592x1944, -2 kb/s, 15 fps, 15 tbr, 1000k tbn, 1000k tbc
Output #0, image2, to './sessions/170207-103139/170207-103139_%4d.jpg':
  Metadata:
    encoder         : Lavf56.40.101
    Stream #0:0: Video: mjpeg, yuvj422p(pc), 2592x1944, q=2-31, 200 kb/s, 1 fps, 1 tbn, 1 tbc
    Metadata:
      encoder         : Lavc56.60.100 mjpeg
Stream mapping:
  Stream #0:0 -> #0:0 (mjpeg (native) -> mjpeg (native))
Press [q] to stop, [?] for help
[mjpeg @ 0x47fa70] ignoring invalid SAR: 0/0
DTS 281466808118, next:66666 st:0 invalid dropping
PTS 281466808118, next:66666 invalid dropping st:0
[mjpeg @ 0x47fa70] ignoring invalid SAR: 0/0
[mjpeg @ 0x47fa70] ignoring invalid SAR: 0/0
[mjpeg @ 0x47fa70] ignoring invalid SAR: 0/0
[mjpeg @ 0x47fa70] ignoring invalid SAR: 0/0
frame=    1 fps=0.0 q=0.0 size=N/A time=00:00:00.00 bitrate=N/A    [mjpeg @ 0x47fa70] ignoring invalid SAR: 0/0
[mjpeg @ 0x47fa70] ignoring invalid SAR: 0/0
[mjpeg @ 0x47fa70] ignoring invalid SAR: 0/0
[mjpeg @ 0x47fa70] ignoring invalid SAR: 0/0
frame=    1 fps=0.9 q=0.0 size=N/A time=00:00:00.00 bitrate=N/A    [mjpeg @ 0x47fa70] ignoring invalid SAR: 0/0
[mjpeg @ 0x47fa70] ignoring invalid SAR: 0/0
[mjpeg @ 0x47fa70] ignoring invalid SAR: 0/0
[mjpeg @ 0x47fa70] ignoring invalid SAR: 0/0
frame=    2 fps=1.3 q=5.0 size=N/A time=00:00:01.00 bitrate=N/A    [mjpeg @ 0x47fa70] ignoring invalid SAR: 0/0
[mjpeg @ 0x47fa70] ignoring invalid SAR: 0/0
[mjpeg @ 0x47fa70] ignoring invalid SAR: 0/0
[mjpeg @ 0x47fa70] ignoring invalid SAR: 0/0
frame=    2 fps=1.0 q=5.0 size=N/A time=00:00:01.00 bitrate=N/A    [mjpeg @ 0x47fa70] ignoring invalid SAR: 0/0
[mjpeg @ 0x47fa70] ignoring invalid SAR: 0/0
[mjpeg @ 0x47fa70] ignoring invalid SAR: 0/0
[mjpeg @ 0x47fa70] ignoring invalid SAR: 0/0
frame=    3 fps=1.2 q=5.0 size=N/A time=00:00:02.00 bitrate=N/A    [mjpeg @ 0x47fa70] ignoring invalid SAR: 0/0
[mjpeg @ 0x47fa70] ignoring invalid SAR: 0/0
[mjpeg @ 0x47fa70] ignoring invalid SAR: 0/0
[mjpeg @ 0x47fa70] ignoring invalid SAR: 0/0
frame=    3 fps=1.0 q=5.0 size=N/A time=00:00:02.00 bitrate=N/A    [mjpeg @ 0x47fa70] ignoring invalid SAR: 0/0
[mjpeg @ 0x47fa70] ignoring invalid SAR: 0/0
[mjpeg @ 0x47fa70] ignoring invalid SAR: 0/0
[mjpeg @ 0x47fa70] ignoring invalid SAR: 0/0
frame=    4 fps=1.1 q=5.0 size=N/A time=00:00:03.00 bitrate=N/A    [mjpeg @ 0x47fa70] ignoring invalid SAR: 0/0
[mjpeg @ 0x47fa70] ignoring invalid SAR: 0/0
[mjpeg @ 0x47fa70] ignoring invalid SAR: 0/0
[mjpeg @ 0x47fa70] ignoring invalid SAR: 0/0
frame=    4 fps=1.0 q=5.0 size=N/A time=00:00:03.00 bitrate=N/A    [mjpeg @ 0x47fa70] ignoring invalid SAR: 0/0
[mjpeg @ 0x47fa70] ignoring invalid SAR: 0/0
[mjpeg @ 0x47fa70] ignoring invalid SAR: 0/0
[mjpeg @ 0x47fa70] ignoring invalid SAR: 0/0
frame=    5 fps=1.1 q=5.0 size=N/A time=00:00:04.00 bitrate=N/A    [mjpeg @ 0x47fa70] ignoring invalid SAR: 0/0
[mjpeg @ 0x47fa70] ignoring invalid SAR: 0/0
[mjpeg @ 0x47fa70] ignoring invalid SAR: 0/0
[mjpeg @ 0x47fa70] ignoring invalid SAR: 0/0
frame=    5 fps=1.0 q=5.0 size=N/A time=00:00:04.00 bitrate=N/A    [mjpeg @ 0x47fa70] ignoring invalid SAR: 0/0
[mjpeg @ 0x47fa70] ignoring invalid SAR: 0/0
[mjpeg @ 0x47fa70] ignoring invalid SAR: 0/0
[mjpeg @ 0x47fa70] ignoring invalid SAR: 0/0
frame=    6 fps=1.1 q=5.0 size=N/A time=00:00:05.00 bitrate=N/A    [mjpeg @ 0x47fa70] ignoring invalid SAR: 0/0
[mjpeg @ 0x47fa70] ignoring invalid SAR: 0/0
[mjpeg @ 0x47fa70] ignoring invalid SAR: 0/0
[mjpeg @ 0x47fa70] ignoring invalid SAR: 0/0
frame=    6 fps=1.0 q=5.0 size=N/A time=00:00:05.00 bitrate=N/A    [mjpeg @ 0x47fa70] ignoring invalid SAR: 0/0
[mjpeg @ 0x47fa70] ignoring invalid SAR: 0/0
[mjpeg @ 0x47fa70] ignoring invalid SAR: 0/0
[mjpeg @ 0x47fa70] ignoring invalid SAR: 0/0
frame=    7 fps=1.0 q=5.0 size=N/A time=00:00:06.00 bitrate=N/A    [mjpeg @ 0x47fa70] ignoring invalid SAR: 0/0
[mjpeg @ 0x47fa70] ignoring invalid SAR: 0/0
[mjpeg @ 0x47fa70] ignoring invalid SAR: 0/0
[mjpeg @ 0x47fa70] ignoring invalid SAR: 0/0
frame=    9 fps=1.2 q=5.0 size=N/A time=00:00:07.00 bitrate=N/A    [mjpeg @ 0x47fa70] ignoring invalid SAR: 0/0
[mjpeg @ 0x47fa70] ignoring invalid SAR: 0/0
[mjpeg @ 0x47fa70] ignoring invalid SAR: 0/0
[mjpeg @ 0x47fa70] ignoring invalid SAR: 0/0
frame=    9 fps=1.2 q=5.0 size=N/A time=00:00:07.00 bitrate=N/A    [mjpeg @ 0x47fa70] ignoring invalid SAR: 0/0
[mjpeg @ 0x47fa70] ignoring invalid SAR: 0/0
[mjpeg @ 0x47fa70] ignoring invalid SAR: 0/0
[mjpeg @ 0x47fa70] ignoring invalid SAR: 0/0
frame=    9 fps=1.1 q=5.0 size=N/A time=00:00:07.00 bitrate=N/A    [mjpeg @ 0x47fa70] ignoring invalid SAR: 0/0
[mjpeg @ 0x47fa70] ignoring invalid SAR: 0/0
[mjpeg @ 0x47fa70] ignoring invalid SAR: 0/0
[mjpeg @ 0x47fa70] ignoring invalid SAR: 0/0
frame=    9 fps=1.0 q=5.0 size=N/A time=00:00:07.00 bitrate=N/A    [mjpeg @ 0x47fa70] ignoring invalid SAR: 0/0
[mjpeg @ 0x47fa70] ignoring invalid SAR: 0/0
[mjpeg @ 0x47fa70] ignoring invalid SAR: 0/0
[mjpeg @ 0x47fa70] ignoring invalid SAR: 0/0
frame=   16 fps=1.6 q=5.0 size=N/A time=00:00:12.00 bitrate=N/A    [mjpeg @ 0x47fa70] ignoring invalid SAR: 0/0
[mjpeg @ 0x47fa70] ignoring invalid SAR: 0/0
[mjpeg @ 0x47fa70] ignoring invalid SAR: 0/0
[mjpeg @ 0x47fa70] ignoring invalid SAR: 0/0
frame=   17 fps=1.7 q=5.0 size=N/A time=00:00:13.00 bitrate=N/A    [mjpeg @ 0x47fa70] ignoring invalid SAR: 0/0
[mjpeg @ 0x47fa70] ignoring invalid SAR: 0/0
[mjpeg @ 0x47fa70] ignoring invalid SAR: 0/0
[mjpeg @ 0x47fa70] ignoring invalid SAR: 0/0
frame=   17 fps=1.6 q=5.0 size=N/A time=00:00:13.00 bitrate=N/A    [mjpeg @ 0x47fa70] ignoring invalid SAR: 0/0
[mjpeg @ 0x47fa70] ignoring invalid SAR: 0/0
[mjpeg @ 0x47fa70] ignoring invalid SAR: 0/0
[mjpeg @ 0x47fa70] ignoring invalid SAR: 0/0
frame=   17 fps=1.5 q=5.0 size=N/A time=00:00:13.00 bitrate=N/A    [mjpeg @ 0x47fa70] ignoring invalid SAR: 0/0
[mjpeg @ 0x47fa70] ignoring invalid SAR: 0/0
[mjpeg @ 0x47fa70] ignoring invalid SAR: 0/0
[mjpeg @ 0x47fa70] ignoring invalid SAR: 0/0
frame=   17 fps=1.4 q=5.0 size=N/A time=00:00:13.00 bitrate=N/A    [mjpeg @ 0x47fa70] ignoring invalid SAR: 0/0
[mjpeg @ 0x47fa70] ignoring invalid SAR: 0/0
[mjpeg @ 0x47fa70] ignoring invalid SAR: 0/0
[mjpeg @ 0x47fa70] ignoring invalid SAR: 0/0
frame=   20 fps=1.6 q=5.0 size=N/A time=00:00:16.00 bitrate=N/A    [mjpeg @ 0x47fa70] ignoring invalid SAR: 0/0
[mjpeg @ 0x47fa70] ignoring invalid SAR: 0/0
[mjpeg @ 0x47fa70] ignoring invalid SAR: 0/0
[mjpeg @ 0x47fa70] ignoring invalid SAR: 0/0
frame=   20 fps=1.6 q=5.0 size=N/A time=00:00:16.00 bitrate=N/A    [mjpeg @ 0x47fa70] ignoring invalid SAR: 0/0
[mjpeg @ 0x47fa70] ignoring invalid SAR: 0/0
[mjpeg @ 0x47fa70] ignoring invalid SAR: 0/0
[mjpeg @ 0x47fa70] ignoring invalid SAR: 0/0
frame=   20 fps=1.5 q=5.0 size=N/A time=00:00:16.00 bitrate=N/A    [mjpeg @ 0x47fa70] ignoring invalid SAR: 0/0
[mjpeg @ 0x47fa70] ignoring invalid SAR: 0/0
[mjpeg @ 0x47fa70] ignoring invalid SAR: 0/0
[mjpeg @ 0x47fa70] ignoring invalid SAR: 0/0
frame=   20 fps=1.4 q=5.0 size=N/A time=00:00:16.00 bitrate=N/A    [mjpeg @ 0x47fa70] ignoring invalid SAR: 0/0
[mjpeg @ 0x47fa70] ignoring invalid SAR: 0/0
[mjpeg @ 0x47fa70] ignoring invalid SAR: 0/0
[mjpeg @ 0x47fa70] ignoring invalid SAR: 0/0
frame=   20 fps=1.4 q=5.0 size=N/A time=00:00:16.00 bitrate=N/A    [mjpeg @ 0x47fa70] ignoring invalid SAR: 0/0
[mjpeg @ 0x47fa70] ignoring invalid SAR: 0/0
[mjpeg @ 0x47fa70] ignoring invalid SAR: 0/0
[mjpeg @ 0x47fa70] ignoring invalid SAR: 0/0
frame=   20 fps=1.3 q=5.0 size=N/A time=00:00:16.00 bitrate=N/A    [mjpeg @ 0x47fa70] ignoring invalid SAR: 0/0
[mjpeg @ 0x47fa70] ignoring invalid SAR: 0/0
[mjpeg @ 0x47fa70] ignoring invalid SAR: 0/0
[mjpeg @ 0x47fa70] ignoring invalid SAR: 0/0
frame=   20 fps=1.3 q=5.0 size=N/A time=00:00:16.00 bitrate=N/A    [mjpeg @ 0x47fa70] ignoring invalid SAR: 0/0
[mjpeg @ 0x47fa70] ignoring invalid SAR: 0/0
[mjpeg @ 0x47fa70] ignoring invalid SAR: 0/0
[mjpeg @ 0x47fa70] ignoring invalid SAR: 0/0
frame=   20 fps=1.3 q=5.0 size=N/A time=00:00:16.00 bitrate=N/A    [mjpeg @ 0x47fa70] ignoring invalid SAR: 0/0
[mjpeg @ 0x47fa70] ignoring invalid SAR: 0/0
[mjpeg @ 0x47fa70] ignoring invalid SAR: 0/0
[mjpeg @ 0x47fa70] ignoring invalid SAR: 0/0
frame=   20 fps=1.2 q=5.0 size=N/A time=00:00:16.00 bitrate=N/A    [mjpeg @ 0x47fa70] ignoring invalid SAR: 0/0
[mjpeg @ 0x47fa70] ignoring invalid SAR: 0/0
[mjpeg @ 0x47fa70] ignoring invalid SAR: 0/0
[mjpeg @ 0x47fa70] ignoring invalid SAR: 0/0
frame=   20 fps=1.2 q=5.0 size=N/A time=00:00:16.00 bitrate=N/A    [mjpeg @ 0x47fa70] ignoring invalid SAR: 0/0
[mjpeg @ 0x47fa70] ignoring invalid SAR: 0/0
[mjpeg @ 0x47fa70] ignoring invalid SAR: 0/0
[mjpeg @ 0x47fa70] ignoring invalid SAR: 0/0
frame=   20 fps=1.1 q=5.0 size=N/A time=00:00:16.00 bitrate=N/A    [mjpeg @ 0x47fa70] ignoring invalid SAR: 0/0
[mjpeg @ 0x47fa70] ignoring invalid SAR: 0/0
[mjpeg @ 0x47fa70] ignoring invalid SAR: 0/0
[mjpeg @ 0x47fa70] ignoring invalid SAR: 0/0
frame=   20 fps=1.1 q=5.0 size=N/A time=00:00:16.00 bitrate=N/A    [mjpeg @ 0x47fa70] ignoring invalid SAR: 0/0
[mjpeg @ 0x47fa70] ignoring invalid SAR: 0/0
[mjpeg @ 0x47fa70] ignoring invalid SAR: 0/0
[mjpeg @ 0x47fa70] ignoring invalid SAR: 0/0
frame=   21 fps=1.1 q=5.0 size=N/A time=00:00:17.00 bitrate=N/A    [mjpeg @ 0x47fa70] ignoring invalid SAR: 0/0
[mjpeg @ 0x47fa70] ignoring invalid SAR: 0/0
[mjpeg @ 0x47fa70] ignoring invalid SAR: 0/0
[mjpeg @ 0x47fa70] ignoring invalid SAR: 0/0
frame=   21 fps=1.1 q=5.0 size=N/A time=00:00:17.00 bitrate=N/A    [mjpeg @ 0x47fa70] ignoring invalid SAR: 0/0
[mjpeg @ 0x47fa70] ignoring invalid SAR: 0/0
[mjpeg @ 0x47fa70] ignoring invalid SAR: 0/0
[mjpeg @ 0x47fa70] ignoring invalid SAR: 0/0
frame=   23 fps=1.2 q=5.0 size=N/A time=00:00:19.00 bitrate=N/A    [mjpeg @ 0x47fa70] ignoring invalid SAR: 0/0
[mjpeg @ 0x47fa70] ignoring invalid SAR: 0/0
[mjpeg @ 0x47fa70] ignoring invalid SAR: 0/0
[mjpeg @ 0x47fa70] ignoring invalid SAR: 0/0
frame=   23 fps=1.1 q=5.0 size=N/A time=00:00:19.00 bitrate=N/A    [mjpeg @ 0x47fa70] ignoring invalid SAR: 0/0
[mjpeg @ 0x47fa70] ignoring invalid SAR: 0/0
[mjpeg @ 0x47fa70] ignoring invalid SAR: 0/0
[mjpeg @ 0x47fa70] ignoring invalid SAR: 0/0
frame=   23 fps=1.1 q=5.0 size=N/A time=00:00:19.00 bitrate=N/A    [mjpeg @ 0x47fa70] ignoring invalid SAR: 0/0
[mjpeg @ 0x47fa70] ignoring invalid SAR: 0/0
[mjpeg @ 0x47fa70] ignoring invalid SAR: 0/0
frame=   28 fps=1.3 q=5.0 size=N/A time=00:00:24.00 bitrate=N/A    [mjpeg @ 0x47fa70] ignoring invalid SAR: 0/0
[mjpeg @ 0x47fa70] ignoring invalid SAR: 0/0
[mjpeg @ 0x47fa70] ignoring invalid SAR: 0/0
[mjpeg @ 0x47fa70] ignoring invalid SAR: 0/0
frame=   28 fps=1.3 q=5.0 size=N/A time=00:00:24.00 bitrate=N/A    [mjpeg @ 0x47fa70] ignoring invalid SAR: 0/0
[mjpeg @ 0x47fa70] ignoring invalid SAR: 0/0
[mjpeg @ 0x47fa70] ignoring invalid SAR: 0/0
[mjpeg @ 0x47fa70] ignoring invalid SAR: 0/0
frame=   28 fps=1.2 q=5.0 size=N/A time=00:00:24.00 bitrate=N/A    [mjpeg @ 0x47fa70] ignoring invalid SAR: 0/0
[mjpeg @ 0x47fa70] ignoring invalid SAR: 0/0
[mjpeg @ 0x47fa70] ignoring invalid SAR: 0/0
[mjpeg @ 0x47fa70] ignoring invalid SAR: 0/0
frame=   28 fps=1.2 q=5.0 size=N/A time=00:00:24.00 bitrate=N/A    [mjpeg @ 0x47fa70] ignoring invalid SAR: 0/0
[mjpeg @ 0x47fa70] ignoring invalid SAR: 0/0
[mjpeg @ 0x47fa70] ignoring invalid SAR: 0/0
[mjpeg @ 0x47fa70] ignoring invalid SAR: 0/0
frame=   31 fps=1.3 q=5.0 size=N/A time=00:00:27.00 bitrate=N/A    [mjpeg @ 0x47fa70] ignoring invalid SAR: 0/0
[mjpeg @ 0x47fa70] ignoring invalid SAR: 0/0
[mjpeg @ 0x47fa70] ignoring invalid SAR: 0/0
[mjpeg @ 0x47fa70] ignoring invalid SAR: 0/0
frame=   31 fps=1.3 q=5.0 size=N/A time=00:00:27.00 bitrate=N/A    [mjpeg @ 0x47fa70] ignoring invalid SAR: 0/0
[mjpeg @ 0x47fa70] ignoring invalid SAR: 0/0
[mjpeg @ 0x47fa70] ignoring invalid SAR: 0/0
[mjpeg @ 0x47fa70] ignoring invalid SAR: 0/0
frame=   31 fps=1.3 q=5.0 size=N/A time=00:00:27.00 bitrate=N/A    [mjpeg @ 0x47fa70] ignoring invalid SAR: 0/0
[mjpeg @ 0x47fa70] ignoring invalid SAR: 0/0
[mjpeg @ 0x47fa70] ignoring invalid SAR: 0/0
[mjpeg @ 0x47fa70] ignoring invalid SAR: 0/0
frame=   31 fps=1.2 q=5.0 size=N/A time=00:00:27.00 bitrate=N/A    [mjpeg @ 0x47fa70] ignoring invalid SAR: 0/0
[mjpeg @ 0x47fa70] ignoring invalid SAR: 0/0
[mjpeg @ 0x47fa70] ignoring invalid SAR: 0/0
[mjpeg @ 0x47fa70] ignoring invalid SAR: 0/0
frame=   31 fps=1.2 q=5.0 size=N/A time=00:00:27.00 bitrate=N/A    [mjpeg @ 0x47fa70] ignoring invalid SAR: 0/0
[mjpeg @ 0x47fa70] ignoring invalid SAR: 0/0
[mjpeg @ 0x47fa70] ignoring invalid SAR: 0/0
[mjpeg @ 0x47fa70] ignoring invalid SAR: 0/0
frame=   31 fps=1.2 q=5.0 size=N/A time=00:00:27.00 bitrate=N/A    [mjpeg @ 0x47fa70] ignoring invalid SAR: 0/0
[mjpeg @ 0x47fa70] ignoring invalid SAR: 0/0
[mjpeg @ 0x47fa70] ignoring invalid SAR: 0/0
[mjpeg @ 0x47fa70] ignoring invalid SAR: 0/0
frame=   31 fps=1.2 q=5.0 size=N/A time=00:00:27.00 bitrate=N/A    [mjpeg @ 0x47fa70] ignoring invalid SAR: 0/0
[mjpeg @ 0x47fa70] ignoring invalid SAR: 0/0
[mjpeg @ 0x47fa70] ignoring invalid SAR: 0/0
[mjpeg @ 0x47fa70] ignoring invalid SAR: 0/0
frame=   31 fps=1.1 q=5.0 size=N/A time=00:00:27.00 bitrate=N/A    [mjpeg @ 0x47fa70] ignoring invalid SAR: 0/0
[mjpeg @ 0x47fa70] ignoring invalid SAR: 0/0
[mjpeg @ 0x47fa70] ignoring invalid SAR: 0/0
[mjpeg @ 0x47fa70] ignoring invalid SAR: 0/0
frame=   31 fps=1.1 q=5.0 size=N/A time=00:00:27.00 bitrate=N/A    [mjpeg @ 0x47fa70] ignoring invalid SAR: 0/0
[mjpeg @ 0x47fa70] ignoring invalid SAR: 0/0
[mjpeg @ 0x47fa70] ignoring invalid SAR: 0/0
[mjpeg @ 0x47fa70] ignoring invalid SAR: 0/0
frame=   31 fps=1.1 q=5.0 size=N/A time=00:00:27.00 bitrate=N/A    [mjpeg @ 0x47fa70] ignoring invalid SAR: 0/0
[mjpeg @ 0x47fa70] ignoring invalid SAR: 0/0
[mjpeg @ 0x47fa70] ignoring invalid SAR: 0/0
[mjpeg @ 0x47fa70] ignoring invalid SAR: 0/0
frame=   31 fps=1.1 q=5.0 size=N/A time=00:00:27.00 bitrate=N/A    [mjpeg @ 0x47fa70] ignoring invalid SAR: 0/0
[mjpeg @ 0x47fa70] ignoring invalid SAR: 0/0
[mjpeg @ 0x47fa70] ignoring invalid SAR: 0/0
[mjpeg @ 0x47fa70] ignoring invalid SAR: 0/0
frame=   31 fps=1.1 q=5.0 size=N/A time=00:00:27.00 bitrate=N/A    [mjpeg @ 0x47fa70] ignoring invalid SAR: 0/0
[mjpeg @ 0x47fa70] ignoring invalid SAR: 0/0
[mjpeg @ 0x47fa70] ignoring invalid SAR: 0/0
[mjpeg @ 0x47fa70] ignoring invalid SAR: 0/0
frame=   31 fps=1.0 q=5.0 size=N/A time=00:00:27.00 bitrate=N/A    [mjpeg @ 0x47fa70] ignoring invalid SAR: 0/0
[mjpeg @ 0x47fa70] ignoring invalid SAR: 0/0
[mjpeg @ 0x47fa70] ignoring invalid SAR: 0/0
[mjpeg @ 0x47fa70] ignoring invalid SAR: 0/0
frame=   31 fps=1.0 q=5.0 size=N/A time=00:00:27.00 bitrate=N/A    [mjpeg @ 0x47fa70] ignoring invalid SAR: 0/0
[mjpeg @ 0x47fa70] ignoring invalid SAR: 0/0
[mjpeg @ 0x47fa70] ignoring invalid SAR: 0/0
[mjpeg @ 0x47fa70] ignoring invalid SAR: 0/0
frame=   38 fps=1.2 q=5.0 size=N/A time=00:00:34.00 bitrate=N/A    [mjpeg @ 0x47fa70] ignoring invalid SAR: 0/0
[mjpeg @ 0x47fa70] ignoring invalid SAR: 0/0
[mjpeg @ 0x47fa70] ignoring invalid SAR: 0/0
[mjpeg @ 0x47fa70] ignoring invalid SAR: 0/0
frame=   38 fps=1.2 q=5.0 size=N/A time=00:00:34.00 bitrate=N/A    [mjpeg @ 0x47fa70] ignoring invalid SAR: 0/0
[mjpeg @ 0x47fa70] ignoring invalid SAR: 0/0
[mjpeg @ 0x47fa70] ignoring invalid SAR: 0/0
[mjpeg @ 0x47fa70] ignoring invalid SAR: 0/0
frame=   38 fps=1.2 q=5.0 size=N/A time=00:00:34.00 bitrate=N/A    [mjpeg @ 0x47fa70] ignoring invalid SAR: 0/0
[mjpeg @ 0x47fa70] ignoring invalid SAR: 0/0
[mjpeg @ 0x47fa70] ignoring invalid SAR: 0/0
[mjpeg @ 0x47fa70] ignoring invalid SAR: 0/0
frame=   38 fps=1.2 q=5.0 size=N/A time=00:00:34.00 bitrate=N/A    [mjpeg @ 0x47fa70] ignoring invalid SAR: 0/0
[mjpeg @ 0x47fa70] ignoring invalid SAR: 0/0
[mjpeg @ 0x47fa70] ignoring invalid SAR: 0/0
[mjpeg @ 0x47fa70] ignoring invalid SAR: 0/0
frame=   38 fps=1.1 q=5.0 size=N/A time=00:00:34.00 bitrate=N/A    [mjpeg @ 0x47fa70] ignoring invalid SAR: 0/0
[mjpeg @ 0x47fa70] ignoring invalid SAR: 0/0
[mjpeg @ 0x47fa70] ignoring invalid SAR: 0/0
[mjpeg @ 0x47fa70] ignoring invalid SAR: 0/0
frame=   38 fps=1.1 q=5.0 size=N/A time=00:00:34.00 bitrate=N/A    [mjpeg @ 0x47fa70] ignoring invalid SAR: 0/0
[mjpeg @ 0x47fa70] ignoring invalid SAR: 0/0
[mjpeg @ 0x47fa70] ignoring invalid SAR: 0/0
[mjpeg @ 0x47fa70] ignoring invalid SAR: 0/0
frame=   38 fps=1.1 q=5.0 size=N/A time=00:00:34.00 bitrate=N/A    [mjpeg @ 0x47fa70] ignoring invalid SAR: 0/0
[mjpeg @ 0x47fa70] ignoring invalid SAR: 0/0
[mjpeg @ 0x47fa70] ignoring invalid SAR: 0/0
[mjpeg @ 0x47fa70] ignoring invalid SAR: 0/0
frame=   42 fps=1.2 q=5.0 size=N/A time=00:00:38.00 bitrate=N/A    [mjpeg @ 0x47fa70] ignoring invalid SAR: 0/0
[mjpeg @ 0x47fa70] ignoring invalid SAR: 0/0
[mjpeg @ 0x47fa70] ignoring invalid SAR: 0/0
[mjpeg @ 0x47fa70] ignoring invalid SAR: 0/0
frame=   42 fps=1.2 q=5.0 size=N/A time=00:00:38.00 bitrate=N/A    [mjpeg @ 0x47fa70] ignoring invalid SAR: 0/0
[mjpeg @ 0x47fa70] ignoring invalid SAR: 0/0
[mjpeg @ 0x47fa70] ignoring invalid SAR: 0/0
[mjpeg @ 0x47fa70] ignoring invalid SAR: 0/0
frame=   42 fps=1.2 q=5.0 size=N/A time=00:00:38.00 bitrate=N/A    [mjpeg @ 0x47fa70] ignoring invalid SAR: 0/0
[mjpeg @ 0x47fa70] ignoring invalid SAR: 0/0
[mjpeg @ 0x47fa70] ignoring invalid SAR: 0/0
[mjpeg @ 0x47fa70] ignoring invalid SAR: 0/0
frame=   42 fps=1.2 q=5.0 size=N/A time=00:00:38.00 bitrate=N/A    [mjpeg @ 0x47fa70] ignoring invalid SAR: 0/0
[mjpeg @ 0x47fa70] ignoring invalid SAR: 0/0
[mjpeg @ 0x47fa70] ignoring invalid SAR: 0/0
[mjpeg @ 0x47fa70] ignoring invalid SAR: 0/0
frame=   42 fps=1.1 q=5.0 size=N/A time=00:00:38.00 bitrate=N/A    [mjpeg @ 0x47fa70] ignoring invalid SAR: 0/0
[mjpeg @ 0x47fa70] ignoring invalid SAR: 0/0
[mjpeg @ 0x47fa70] ignoring invalid SAR: 0/0
[mjpeg @ 0x47fa70] ignoring invalid SAR: 0/0
frame=   42 fps=1.1 q=5.0 size=N/A time=00:00:38.00 bitrate=N/A    [mjpeg @ 0x47fa70] ignoring invalid SAR: 0/0
[mjpeg @ 0x47fa70] ignoring invalid SAR: 0/0
[mjpeg @ 0x47fa70] ignoring invalid SAR: 0/0
[mjpeg @ 0x47fa70] ignoring invalid SAR: 0/0
frame=   42 fps=1.1 q=5.0 size=N/A time=00:00:38.00 bitrate=N/A    [mjpeg @ 0x47fa70] ignoring invalid SAR: 0/0
[mjpeg @ 0x47fa70] ignoring invalid SAR: 0/0
[mjpeg @ 0x47fa70] ignoring invalid SAR: 0/0
[mjpeg @ 0x47fa70] ignoring invalid SAR: 0/0
frame=   42 fps=1.1 q=5.0 size=N/A time=00:00:38.00 bitrate=N/A    [mjpeg @ 0x47fa70] ignoring invalid SAR: 0/0
[mjpeg @ 0x47fa70] ignoring invalid SAR: 0/0
[mjpeg @ 0x47fa70] ignoring invalid SAR: 0/0
[mjpeg @ 0x47fa70] ignoring invalid SAR: 0/0
frame=   42 fps=1.1 q=5.0 size=N/A time=00:00:38.00 bitrate=N/A    [mjpeg @ 0x47fa70] ignoring invalid SAR: 0/0
[mjpeg @ 0x47fa70] ignoring invalid SAR: 0/0
[mjpeg @ 0x47fa70] ignoring invalid SAR: 0/0
[mjpeg @ 0x47fa70] ignoring invalid SAR: 0/0
frame=   42 fps=1.1 q=5.0 size=N/A time=00:00:38.00 bitrate=N/A    [mjpeg @ 0x47fa70] ignoring invalid SAR: 0/0
[mjpeg @ 0x47fa70] ignoring invalid SAR: 0/0
[mjpeg @ 0x47fa70] ignoring invalid SAR: 0/0
[mjpeg @ 0x47fa70] ignoring invalid SAR: 0/0
frame=   42 fps=1.1 q=5.0 size=N/A time=00:00:38.00 bitrate=N/A    [mjpeg @ 0x47fa70] ignoring invalid SAR: 0/0
[mjpeg @ 0x47fa70] ignoring invalid SAR: 0/0
[mjpeg @ 0x47fa70] ignoring invalid SAR: 0/0
[mjpeg @ 0x47fa70] ignoring invalid SAR: 0/0
frame=   42 fps=1.0 q=5.0 size=N/A time=00:00:38.00 bitrate=N/A    [mjpeg @ 0x47fa70] ignoring invalid SAR: 0/0
[mjpeg @ 0x47fa70] ignoring invalid SAR: 0/0
[mjpeg @ 0x47fa70] ignoring invalid SAR: 0/0
[mjpeg @ 0x47fa70] ignoring invalid SAR: 0/0
frame=   42 fps=1.0 q=5.0 size=N/A time=00:00:38.00 bitrate=N/A    [mjpeg @ 0x47fa70] ignoring invalid SAR: 0/0
[mjpeg @ 0x47fa70] ignoring invalid SAR: 0/0
[mjpeg @ 0x47fa70] ignoring invalid SAR: 0/0
[mjpeg @ 0x47fa70] ignoring invalid SAR: 0/0
frame=   42 fps=1.0 q=5.0 size=N/A time=00:00:38.00 bitrate=N/A    [mjpeg @ 0x47fa70] ignoring invalid SAR: 0/0
[mjpeg @ 0x47fa70] ignoring invalid SAR: 0/0
[mjpeg @ 0x47fa70] ignoring invalid SAR: 0/0
[mjpeg @ 0x47fa70] ignoring invalid SAR: 0/0
frame=   42 fps=1.0 q=5.0 size=N/A time=00:00:38.00 bitrate=N/A    [mjpeg @ 0x47fa70] ignoring invalid SAR: 0/0
[mjpeg @ 0x47fa70] ignoring invalid SAR: 0/0
[mjpeg @ 0x47fa70] ignoring invalid SAR: 0/0
[mjpeg @ 0x47fa70] ignoring invalid SAR: 0/0
frame=   43 fps=1.0 q=5.0 size=N/A time=00:00:39.00 bitrate=N/A    [mjpeg @ 0x47fa70] ignoring invalid SAR: 0/0
[mjpeg @ 0x47fa70] ignoring invalid SAR: 0/0
[mjpeg @ 0x47fa70] ignoring invalid SAR: 0/0
[mjpeg @ 0x47fa70] ignoring invalid SAR: 0/0
frame=   45 fps=1.0 q=5.0 size=N/A time=00:00:41.00 bitrate=N/A    [mjpeg @ 0x47fa70] ignoring invalid SAR: 0/0
[mjpeg @ 0x47fa70] ignoring invalid SAR: 0/0
[mjpeg @ 0x47fa70] ignoring invalid SAR: 0/0
[mjpeg @ 0x47fa70] ignoring invalid SAR: 0/0
frame=   45 fps=1.0 q=5.0 size=N/A time=00:00:41.00 bitrate=N/A    [mjpeg @ 0x47fa70] ignoring invalid SAR: 0/0
[mjpeg @ 0x47fa70] ignoring invalid SAR: 0/0
[mjpeg @ 0x47fa70] ignoring invalid SAR: 0/0
[mjpeg @ 0x47fa70] ignoring invalid SAR: 0/0
frame=   45 fps=1.0 q=5.0 size=N/A time=00:00:41.00 bitrate=N/A    [mjpeg @ 0x47fa70] ignoring invalid SAR: 0/0
[mjpeg @ 0x47fa70] ignoring invalid SAR: 0/0
[mjpeg @ 0x47fa70] ignoring invalid SAR: 0/0
[mjpeg @ 0x47fa70] ignoring invalid SAR: 0/0
frame=   46 fps=1.0 q=5.0 size=N/A time=00:00:42.00 bitrate=N/A    [mjpeg @ 0x47fa70] ignoring invalid SAR: 0/0
[mjpeg @ 0x47fa70] ignoring invalid SAR: 0/0
[mjpeg @ 0x47fa70] ignoring invalid SAR: 0/0
[mjpeg @ 0x47fa70] ignoring invalid SAR: 0/0
frame=   46 fps=1.0 q=5.0 size=N/A time=00:00:42.00 bitrate=N/A    [mjpeg @ 0x47fa70] ignoring invalid SAR: 0/0
[mjpeg @ 0x47fa70] ignoring invalid SAR: 0/0
[mjpeg @ 0x47fa70] ignoring invalid SAR: 0/0
[mjpeg @ 0x47fa70] ignoring invalid SAR: 0/0
frame=   47 fps=1.0 q=5.0 size=N/A time=00:00:43.00 bitrate=N/A    [mjpeg @ 0x47fa70] ignoring invalid SAR: 0/0
[mjpeg @ 0x47fa70] ignoring invalid SAR: 0/0
[mjpeg @ 0x47fa70] ignoring invalid SAR: 0/0
[mjpeg @ 0x47fa70] ignoring invalid SAR: 0/0
frame=   47 fps=1.0 q=5.0 size=N/A time=00:00:43.00 bitrate=N/A    [mjpeg @ 0x47fa70] ignoring invalid SAR: 0/0
[mjpeg @ 0x47fa70] ignoring invalid SAR: 0/0
[mjpeg @ 0x47fa70] ignoring invalid SAR: 0/0
[mjpeg @ 0x47fa70] ignoring invalid SAR: 0/0
frame=   47 fps=1.0 q=5.0 size=N/A time=00:00:43.00 bitrate=N/A    [mjpeg @ 0x47fa70] ignoring invalid SAR: 0/0
[mjpeg @ 0x47fa70] ignoring invalid SAR: 0/0
[mjpeg @ 0x47fa70] ignoring invalid SAR: 0/0
frame=   55 fps=1.2 q=5.0 size=N/A time=00:00:51.00 bitrate=N/A    [mjpeg @ 0x47fa70] ignoring invalid SAR: 0/0
[mjpeg @ 0x47fa70] ignoring invalid SAR: 0/0
[mjpeg @ 0x47fa70] ignoring invalid SAR: 0/0
[mjpeg @ 0x47fa70] ignoring invalid SAR: 0/0
frame=   55 fps=1.1 q=5.0 size=N/A time=00:00:51.00 bitrate=N/A    [mjpeg @ 0x47fa70] ignoring invalid SAR: 0/0
[mjpeg @ 0x47fa70] ignoring invalid SAR: 0/0
[mjpeg @ 0x47fa70] ignoring invalid SAR: 0/0
[mjpeg @ 0x47fa70] ignoring invalid SAR: 0/0
frame=   55 fps=1.1 q=5.0 size=N/A time=00:00:51.00 bitrate=N/A    [mjpeg @ 0x47fa70] ignoring invalid SAR: 0/0
[mjpeg @ 0x47fa70] ignoring invalid SAR: 0/0
[mjpeg @ 0x47fa70] ignoring invalid SAR: 0/0
[mjpeg @ 0x47fa70] ignoring invalid SAR: 0/0
frame=   55 fps=1.1 q=5.0 size=N/A time=00:00:51.00 bitrate=N/A    [mjpeg @ 0x47fa70] ignoring invalid SAR: 0/0
[mjpeg @ 0x47fa70] ignoring invalid SAR: 0/0
[mjpeg @ 0x47fa70] ignoring invalid SAR: 0/0
[mjpeg @ 0x47fa70] ignoring invalid SAR: 0/0
frame=   55 fps=1.1 q=5.0 size=N/A time=00:00:51.00 bitrate=N/A    [mjpeg @ 0x47fa70] ignoring invalid SAR: 0/0
[mjpeg @ 0x47fa70] ignoring invalid SAR: 0/0
[mjpeg @ 0x47fa70] ignoring invalid SAR: 0/0
[mjpeg @ 0x47fa70] ignoring invalid SAR: 0/0
frame=   55 fps=1.1 q=5.0 size=N/A time=00:00:51.00 bitrate=N/A    [mjpeg @ 0x47fa70] ignoring invalid SAR: 0/0
[mjpeg @ 0x47fa70] ignoring invalid SAR: 0/0
[mjpeg @ 0x47fa70] ignoring invalid SAR: 0/0
[mjpeg @ 0x47fa70] ignoring invalid SAR: 0/0
frame=   55 fps=1.1 q=5.0 size=N/A time=00:00:51.00 bitrate=N/A    [mjpeg @ 0x47fa70] ignoring invalid SAR: 0/0
[mjpeg @ 0x47fa70] ignoring invalid SAR: 0/0
[mjpeg @ 0x47fa70] ignoring invalid SAR: 0/0
[mjpeg @ 0x47fa70] ignoring invalid SAR: 0/0
frame=   55 fps=1.1 q=5.0 size=N/A time=00:00:51.00 bitrate=N/A    [mjpeg @ 0x47fa70] ignoring invalid SAR: 0/0
[mjpeg @ 0x47fa70] ignoring invalid SAR: 0/0
[mjpeg @ 0x47fa70] ignoring invalid SAR: 0/0
[mjpeg @ 0x47fa70] ignoring invalid SAR: 0/0
frame=   55 fps=1.1 q=5.0 size=N/A time=00:00:51.00 bitrate=N/A    [mjpeg @ 0x47fa70] ignoring invalid SAR: 0/0
[mjpeg @ 0x47fa70] ignoring invalid SAR: 0/0
[mjpeg @ 0x47fa70] ignoring invalid SAR: 0/0
[mjpeg @ 0x47fa70] ignoring invalid SAR: 0/0
frame=   55 fps=1.1 q=5.0 size=N/A time=00:00:51.00 bitrate=N/A    [mjpeg @ 0x47fa70] ignoring invalid SAR: 0/0
[mjpeg @ 0x47fa70] ignoring invalid SAR: 0/0
[mjpeg @ 0x47fa70] ignoring invalid SAR: 0/0
[mjpeg @ 0x47fa70] ignoring invalid SAR: 0/0
frame=   55 fps=1.0 q=5.0 size=N/A time=00:00:51.00 bitrate=N/A    [mjpeg @ 0x47fa70] ignoring invalid SAR: 0/0
[mjpeg @ 0x47fa70] ignoring invalid SAR: 0/0
[mjpeg @ 0x47fa70] ignoring invalid SAR: 0/0
[mjpeg @ 0x47fa70] ignoring invalid SAR: 0/0
frame=   55 fps=1.0 q=5.0 size=N/A time=00:00:51.00 bitrate=N/A    [mjpeg @ 0x47fa70] ignoring invalid SAR: 0/0
[mjpeg @ 0x47fa70] ignoring invalid SAR: 0/0
[mjpeg @ 0x47fa70] ignoring invalid SAR: 0/0
[mjpeg @ 0x47fa70] ignoring invalid SAR: 0/0
frame=   55 fps=1.0 q=5.0 size=N/A time=00:00:51.00 bitrate=N/A    [mjpeg @ 0x47fa70] ignoring invalid SAR: 0/0
[mjpeg @ 0x47fa70] ignoring invalid SAR: 0/0
[mjpeg @ 0x47fa70] ignoring invalid SAR: 0/0
[mjpeg @ 0x47fa70] ignoring invalid SAR: 0/0
frame=   55 fps=1.0 q=5.0 size=N/A time=00:00:51.00 bitrate=N/A    [mjpeg @ 0x47fa70] ignoring invalid SAR: 0/0
[mjpeg @ 0x47fa70] ignoring invalid SAR: 0/0
[mjpeg @ 0x47fa70] ignoring invalid SAR: 0/0
[mjpeg @ 0x47fa70] ignoring invalid SAR: 0/0
frame=   55 fps=1.0 q=5.0 size=N/A time=00:00:51.00 bitrate=N/A    [mjpeg @ 0x47fa70] ignoring invalid SAR: 0/0
[mjpeg @ 0x47fa70] ignoring invalid SAR: 0/0
[mjpeg @ 0x47fa70] ignoring invalid SAR: 0/0
[mjpeg @ 0x47fa70] ignoring invalid SAR: 0/0
frame=   56 fps=1.0 q=5.0 size=N/A time=00:00:52.00 bitrate=N/A    [mjpeg @ 0x47fa70] ignoring invalid SAR: 0/0
[mjpeg @ 0x47fa70] ignoring invalid SAR: 0/0
[mjpeg @ 0x47fa70] ignoring invalid SAR: 0/0
[mjpeg @ 0x47fa70] ignoring invalid SAR: 0/0
frame=   56 fps=1.0 q=5.0 size=N/A time=00:00:52.00 bitrate=N/A    [mjpeg @ 0x47fa70] ignoring invalid SAR: 0/0
[mjpeg @ 0x47fa70] ignoring invalid SAR: 0/0
[mjpeg @ 0x47fa70] ignoring invalid SAR: 0/0
[mjpeg @ 0x47fa70] ignoring invalid SAR: 0/0
frame=   57 fps=1.0 q=5.0 size=N/A time=00:00:53.00 bitrate=N/A    [mjpeg @ 0x47fa70] ignoring invalid SAR: 0/0
[mjpeg @ 0x47fa70] ignoring invalid SAR: 0/0
[mjpeg @ 0x47fa70] ignoring invalid SAR: 0/0
[mjpeg @ 0x47fa70] ignoring invalid SAR: 0/0
frame=   59 fps=1.0 q=5.0 size=N/A time=00:00:55.00 bitrate=N/A    [mjpeg @ 0x47fa70] ignoring invalid SAR: 0/0
[mjpeg @ 0x47fa70] ignoring invalid SAR: 0/0
frame=   64 fps=1.1 q=5.0 size=N/A time=00:01:00.00 bitrate=N/A    [mjpeg @ 0x47fa70] ignoring invalid SAR: 0/0
[mjpeg @ 0x47fa70] ignoring invalid SAR: 0/0
[mjpeg @ 0x47fa70] ignoring invalid SAR: 0/0
[mjpeg @ 0x47fa70] ignoring invalid SAR: 0/0
frame=   64 fps=1.1 q=5.0 size=N/A time=00:01:00.00 bitrate=N/A    [mjpeg @ 0x47fa70] ignoring invalid SAR: 0/0
[mjpeg @ 0x47fa70] ignoring invalid SAR: 0/0
[mjpeg @ 0x47fa70] ignoring invalid SAR: 0/0
[mjpeg @ 0x47fa70] ignoring invalid SAR: 0/0
frame=   64 fps=1.1 q=5.0 size=N/A time=00:01:00.00 bitrate=N/A    [mjpeg @ 0x47fa70] ignoring invalid SAR: 0/0
[mjpeg @ 0x47fa70] ignoring invalid SAR: 0/0
[mjpeg @ 0x47fa70] ignoring invalid SAR: 0/0
[mjpeg @ 0x47fa70] ignoring invalid SAR: 0/0
frame=   64 fps=1.1 q=5.0 size=N/A time=00:01:00.00 bitrate=N/A    [mjpeg @ 0x47fa70] ignoring invalid SAR: 0/0
[mjpeg @ 0x47fa70] ignoring invalid SAR: 0/0
[mjpeg @ 0x47fa70] ignoring invalid SAR: 0/0
[mjpeg @ 0x47fa70] ignoring invalid SAR: 0/0
frame=   64 fps=1.1 q=5.0 size=N/A time=00:01:00.00 bitrate=N/A    [mjpeg @ 0x47fa70] ignoring invalid SAR: 0/0
[mjpeg @ 0x47fa70] ignoring invalid SAR: 0/0
[mjpeg @ 0x47fa70] ignoring invalid SAR: 0/0
[mjpeg @ 0x47fa70] ignoring invalid SAR: 0/0
frame=   64 fps=1.1 q=5.0 size=N/A time=00:01:00.00 bitrate=N/A    [mjpeg @ 0x47fa70] ignoring invalid SAR: 0/0
[mjpeg @ 0x47fa70] ignoring invalid SAR: 0/0
[mjpeg @ 0x47fa70] ignoring invalid SAR: 0/0
frame=   68 fps=1.1 q=5.0 size=N/A time=00:01:04.00 bitrate=N/A    [mjpeg @ 0x47fa70] ignoring invalid SAR: 0/0
[mjpeg @ 0x47fa70] ignoring invalid SAR: 0/0
[mjpeg @ 0x47fa70] ignoring invalid SAR: 0/0
[mjpeg @ 0x47fa70] ignoring invalid SAR: 0/0
frame=   68 fps=1.1 q=5.0 size=N/A time=00:01:04.00 bitrate=N/A    [mjpeg @ 0x47fa70] ignoring invalid SAR: 0/0
[mjpeg @ 0x47fa70] ignoring invalid SAR: 0/0
[mjpeg @ 0x47fa70] ignoring invalid SAR: 0/0
[mjpeg @ 0x47fa70] ignoring invalid SAR: 0/0
frame=   68 fps=1.1 q=5.0 size=N/A time=00:01:04.00 bitrate=N/A    [mjpeg @ 0x47fa70] ignoring invalid SAR: 0/0
[mjpeg @ 0x47fa70] ignoring invalid SAR: 0/0
[mjpeg @ 0x47fa70] ignoring invalid SAR: 0/0
[mjpeg @ 0x47fa70] ignoring invalid SAR: 0/0
frame=   68 fps=1.1 q=5.0 size=N/A time=00:01:04.00 bitrate=N/A    [mjpeg @ 0x47fa70] ignoring invalid SAR: 0/0
[mjpeg @ 0x47fa70] ignoring invalid SAR: 0/0
[mjpeg @ 0x47fa70] ignoring invalid SAR: 0/0
[mjpeg @ 0x47fa70] ignoring invalid SAR: 0/0
frame=   69 fps=1.1 q=5.0 size=N/A time=00:01:05.00 bitrate=N/A    [mjpeg @ 0x47fa70] ignoring invalid SAR: 0/0
[mjpeg @ 0x47fa70] ignoring invalid SAR: 0/0
[mjpeg @ 0x47fa70] ignoring invalid SAR: 0/0
[mjpeg @ 0x47fa70] ignoring invalid SAR: 0/0
frame=   69 fps=1.1 q=5.0 size=N/A time=00:01:05.00 bitrate=N/A    [mjpeg @ 0x47fa70] ignoring invalid SAR: 0/0
[mjpeg @ 0x47fa70] ignoring invalid SAR: 0/0
[mjpeg @ 0x47fa70] ignoring invalid SAR: 0/0
[mjpeg @ 0x47fa70] ignoring invalid SAR: 0/0
frame=   69 fps=1.1 q=5.0 size=N/A time=00:01:05.00 bitrate=N/A    [mjpeg @ 0x47fa70] ignoring invalid SAR: 0/0
[mjpeg @ 0x47fa70] ignoring invalid SAR: 0/0
[mjpeg @ 0x47fa70] ignoring invalid SAR: 0/0
[mjpeg @ 0x47fa70] ignoring invalid SAR: 0/0
frame=   69 fps=1.1 q=5.0 size=N/A time=00:01:05.00 bitrate=N/A    [mjpeg @ 0x47fa70] ignoring invalid SAR: 0/0
[mjpeg @ 0x47fa70] ignoring invalid SAR: 0/0
[mjpeg @ 0x47fa70] ignoring invalid SAR: 0/0
[mjpeg @ 0x47fa70] ignoring invalid SAR: 0/0
frame=   69 fps=1.0 q=5.0 size=N/A time=00:01:05.00 bitrate=N/A    [mjpeg @ 0x47fa70] ignoring invalid SAR: 0/0
[mjpeg @ 0x47fa70] ignoring invalid SAR: 0/0
[mjpeg @ 0x47fa70] ignoring invalid SAR: 0/0
[mjpeg @ 0x47fa70] ignoring invalid SAR: 0/0
frame=   69 fps=1.0 q=5.0 size=N/A time=00:01:05.00 bitrate=N/A    [mjpeg @ 0x47fa70] ignoring invalid SAR: 0/0
[mjpeg @ 0x47fa70] ignoring invalid SAR: 0/0
[mjpeg @ 0x47fa70] ignoring invalid SAR: 0/0
[mjpeg @ 0x47fa70] ignoring invalid SAR: 0/0
frame=   69 fps=1.0 q=5.0 size=N/A time=00:01:05.00 bitrate=N/A    [mjpeg @ 0x47fa70] ignoring invalid SAR: 0/0
[mjpeg @ 0x47fa70] ignoring invalid SAR: 0/0
[mjpeg @ 0x47fa70] ignoring invalid SAR: 0/0
[mjpeg @ 0x47fa70] ignoring invalid SAR: 0/0
[output stream 0:0 @ 0x48d460] 100 buffers queued in output stream 0:0, something may be wrong.
